<svg xmlns="http://www.w3.org/2000/svg" xmlns:xlink="http://www.w3.org/1999/xlink" width="454" height="300" viewBox="0 0 454 300">
    <defs>
        <path id="a" d="M0 .13h308.383V110H0z"/>
        <path id="c" d="M.21.281h274.633v274.375H.211z"/>
    </defs>
    <g fill="none" fill-rule="evenodd">
        <g transform="translate(0 189.719)">
            <mask id="b" fill="#fff">
                <use xlink:href="#a"/>
            </mask>
            <path fill="#000" d="M262.377.13l-.605.606c-48.124 66.89-100.184 100.79-154.362 100.79-29.36 0-59.02-9.99-88.38-29.662A272.198 272.198 0 0 1 4.356 60.722H0c5.49 4.449 11.336 8.822 17.517 12.958C52.022 97.894 88.645 110 126.479 110c102.3 0 180.087-91.406 180.996-92.314l.908-1.211L262.377.13z" mask="url(#b)"/>
        </g>
        <path fill="#000" d="M287.12 203.684h6.83l-2.352-2.937zM269.653 194.194l-.493 2.987-4.425-.939zM250.926 208.414l3.909-8.197-6.683 3.153z"/>
        <path fill="#FFF" d="M271.154 194.692s-37.53 10.897-52.06 23.911l-1.815 8.475-11.805 13.62-13.014 2.12-8.475-8.779-3.026-8.474 5.448-16.041 6.053-4.844 7.87-1.816 8.777-2.119 16.041-8.776 21.49-13.016 17.858-7.566 17.554-6.357.303-6.657-8.777-.303-3.33-1.816-2.118-15.135 3.026-7.869 4.237-3.934 5.45-4.237 8.473-5.448 7.568-1.212 4.237.606 2.723 3.33 7.567-11.502 42.374-61.744 46.611-34.505 47.217-12.712 1.513 3.935s20.884 26.938-44.492 101.394l-59.929 59.02-16.344 9.988 1.21 5.146 3.936 4.238s17.857 36.925 15.132 49.334l.606 11.502s-1.514 19.673-19.068 25.424c0 0-13.923 5.449-23.912-11.803 0 0-1.512-7.567 3.33-13.62 0 0 1.513-30.57-17.252-44.796-.605-.303-11.5 8.172-21.187-6.962"/>
        <path fill="#000" d="M305.356 254.319s10.29 35.11 39.347 4.54c0 0-5.75 12.41-21.49 15.436.303 0-16.344.606-17.857-19.977"/>
        <path fill="#E1001A" d="M269.64 188.64l8.476-14.529s-45.401 14.528-63.561 32.688c0 0-16.042.606-20.279 5.146 0 0-11.502 15.133 1.513 24.213 0 0 12.108 5.751 20.28-16.647l2.119-3.632c0-.303 38.74-26.635 51.452-27.24M283.26 148.687l9.989-16.344s5.449-11.804-9.08-4.54c0 0-12.712 10.593-10.895 20.279 0 0 .907 4.54 3.026 4.842l5.146-.605 1.815-3.632zM298.697 199.232l23.911-15.435s24.214 34.806 20.581 67.798c0 0-7.869 14.225-18.16 16.646 0 0-13.923-2.724-13.62-13.922 0 0-.303-8.172 7.567-9.988.303-.303 6.961-38.44-20.279-45.099M451.546 32.764l-1.514-27.24C356.507 45.476 295.67 158.07 295.67 158.07c.908 1.816 2.42 3.027 3.935 4.237l-4.54 4.238-15.437 26.332c2.725 8.172 9.988 7.87 9.988 7.87 1.817-.303 66.285-42.98 66.285-42.98-.605-.302-.908-.302-1.513-.605 91.709-81.115 97.157-124.397 97.157-124.397"/>
        <path fill="#E1001A" d="M417.344 92.995c49.94-62.955 31.78-86.26 31.78-86.26L447.612 2.8l-47.52 12.712-36.926 27.24c3.632 0 10.897.908 20.28 6.66 10.592 6.657 23.002 19.067 33.898 43.583"/>
        <path fill="#FFF" d="M417.344 95.114c31.478-39.044 33.899-59.626 33.899-59.626l-1.513-27.24c-24.516 10.594-46.914 26.03-66.284 42.979 10.592 6.659 23.002 19.37 33.898 43.887"/>
        <path fill="#000" d="M438.531 5.524s-2.422 10.291 11.501 9.988c0-.303 4.237-17.555-11.5-9.988"/>
        <path fill="#FFF" d="M371.035 71.506c-3.935.303-7.566-.303-9.988-2.119-2.421-1.513-3.632-4.237-3.935-7.264-.303-5.751 3.33-12.712 9.383-18.765 6.054-5.751 13.62-9.686 20.582-10.291 3.935-.303 7.566.302 9.988 2.119 6.961 4.842 4.54 16.343-5.751 26.029-5.751 5.751-13.317 9.686-20.279 10.291"/>
        <path fill="#000" d="M374.668 64.847c-2.422 0-4.238-.605-5.448-2.119-1.211-1.21-1.817-3.027-1.817-5.145 0-3.935 2.422-8.475 6.357-11.804 3.632-3.33 8.172-5.449 12.106-5.449 2.422 0 4.238.606 5.448 2.12 3.632 3.934 1.514 11.501-4.842 17.251-3.632 3.027-7.87 5.146-11.804 5.146"/>
        <g transform="translate(179 -.281)">
            <mask id="d" fill="#fff">
                <use xlink:href="#c"/>
            </mask>
            <path fill="#000" d="M128.475 260.048c-1.514-6.961 2.422-13.015 2.725-13.015l.3-.302c3.029-22.398-14.526-44.19-15.132-45.401l-.302-.303c3.328-2.12 14.83-9.988 28.45-20.28 13.924 5.449 23.608 50.244 23.91 50.547 3.028 26.03-6.355 32.083-6.657 32.386l-.304.303c-6.962 7.869-13.62 9.685-17.857 9.685-2.422 0-3.935-.303-4.238-.303-6.356-4.237-9.988-8.474-10.895-13.317zm-7.87-138.32c1.212 1.816 1.212 5.145-.303 9.383l-2.724 4.54c-1.513 2.42-3.026 5.145-4.54 7.869-4.54 6.659-8.474 13.015-9.382 14.225-.303 0-1.514.303-3.33.303-3.33 0-6.96-.605-7.87-2.421 0 0-.907-1.816-1.513-4.54-1.816-11.2 3.633-18.463 8.778-22.701 4.54-3.33 11.501-7.567 17.858-7.87.587 0 2.225.09 3.027 1.212zm-12.409 48.427l-1.513-.908c0 .302-10.897 17.555-14.529 22.095-7.868 3.329-44.794 18.463-52.663 26.937l-.303.303.302 1.21c-.909 1.212-1.21 1.817-.909 2.422-2.42 5.75-8.777 18.16-19.068 18.766-1.816 0-3.935-.303-6.054-1.211 0 0-6.96-3.935-8.473-11.804-1.211-5.751.908-12.107 5.75-18.766 0 0 6.355-6.053 22.095-7.264h.605c.605-.605 1.514-.908 2.118-1.513l.908-.605c3.632-2.12 9.08-5.45 12.108-6.962 10.895-5.75 21.792-12.107 21.792-12.107 23.609-11.501 39.347-15.133 39.65-15.133l2.725-.606-2.422-1.21s-3.936-1.816-3.33-4.843l.909-1.513c5.75-10.594 23.606-46.006 47.82-77.787 3.935-5.447 13.016-16.344 16.042-19.976 14.226-15.436 23.004-23.003 38.44-34.807 16.647-12.107 39.953-16.344 51.756-17.857l2.724-.303c2.725-.605 3.33.908 3.935.908 0 0 0-2.421-.303-1.211-.303 6.054 7.567 21.187-7.87 50.546-24.212 44.493-57.81 75.668-98.67 109.567-17.251 13.62-31.174 18.16-40.86 25.424-7.87 5.145-13.62 8.778-16.648 10.29-2.42 0-4.54-.605-6.355-1.815-1.514-2.421-2.725-5.448-3.028-7.567l13.32-22.7zM267.704 1.265c-.605 0-78.165-7.907-141.016 116.529-1.513-1.816-2.752-2.422-7.293-2.12-3.026 0-6.657 1.21-10.594 3.33l-.906.605c-3.937 2.119-7.568 4.54-10.291 6.96 0 0-.606.607-1.514 1.212-6.355 6.054-7.567 12.107-7.567 16.04-.303 4.54.303 8.779 2.421 13.017l.303.302c.303.303 3.934 3.632 10.291 3.632-.606 2.119-1.21 3.632-1.514 3.935-17.251 3.935-39.043 16.344-53.874 26.332h-.303s-9.988 6.053-15.738 8.475c-1.515-.303-3.029-.303-4.54-.303-5.449.303-13.017 2.119-18.767 9.686-1.514 2.118-3.026 4.842-4.237 7.567 0 .302-8.777 16.647 7.566 25.424.909.303 1.817.908 2.724 1.21 0 0 3.028 1.21 6.963.908 6.053-.302 17.252-3.632 21.185-23.911 2.725-2.724 13.319-9.685 50.547-24.818 2.724 7.869 8.171 9.382 12.107 9.382 3.934 0 7.344-1.721 8.858-2.327 18.463 21.49 15.96 41.069 15.658 42.885-3.026 5.75-3.934 11.199-2.118 16.04 2.724 8.477 11.5 12.41 12.107 12.41 1.815.607 3.934 1.212 5.75.909 7.87-.302 14.832-6.356 15.132-6.66 28.755-22.7 4.54-78.088-5.447-92.011.606-1.815 8.475-6.053 12.713-9.382 5.447-4.238 19.673-15.436 25.12-19.976 8.173-6.962 8.476-7.265 15.135-13.621C231.382 108.41 240.16 96 240.16 95.698c43.28-56.6 34.805-72.641 32.385-92.92v-.605c-.303-1.513-1.212-2.12-2.724-1.816l-2.118.908z" mask="url(#d)"/>
        </g>
        <path fill="#000" d="M268.302 195.128l2.94-.934 3.536 6.231 6.998 2.233 6.115-2.287.54 3.138-7.691 2.082-4.145-.63-3.136-1.762-2.753-2.96-1.136-2.164z"/>
        <path fill="#FFF" d="M275.426 226.304l.494-.677.162.008h.003c.056.002.788.19 1.998-.02 4.789-2.087 5.88-4.046 7.54-6.747l.279-.452c2.303-4.569 2.82-11.336 2.3-14.453l-.212-1.258-.31.14c-3.205 1.483-6.29 2.261-8.677 2.188-6.633-.203-9.02-5.83-9.687-7.58l-.15-.353-.248-.052c-.067-.237-.16-.577-.224-.806-13.56 2.043-15.536 6.06-16.98 8.991-.845 1.713-2.342 3.7-2.945 4.474l.506.187c.397.158.864.265 1.435.332 1.916.22 3.82-1.043 3.834-1.057l1.69-1.429c1.404-1.112 2.283-1.71 3.066-1.686.366.011.629-.014.845.367.64 1.075-.07 3.004-2.002 5.424-1.714 2.182-2.427 4.122-2.523 5.21-.114 1.338-.447 2.921-1.73 6.681-1.47 4.003-4.19 8.578-8.295 13.96a488.56 488.56 0 0 1 8.336-4.919c4.416-2.16 5.773-3.615 9.402-7.499l.3-.325c1.35-1.52 3.136-3.335 3.96-3.309l.124.004.086.088c.037.04.354.383.369.78.504 1.82.136 5.046-4.408 10.15-.105.116-.175.19-.2.225-1.48 1.673-2.425 3.616-3.16 5.297-.22.502-.384 1.257-.465 1.692l.176.006c.08-.379.27-1.08.658-1.657.799-.892.56-.71 2.882-2.333l1.55-1.149.338-.187c.173-.113 1.219-.832 1.327-.89.016-.009.388-.252.406-.26.756-.474.495-.304 1.52-.906 2.794-1.603 4.907-3.813 6.63-6.2"/>
        <path fill="#000" d="M288.5 203.914l-.275-1.646-.668.302c-3.072 1.42-6.125 2.235-8.545 2.16-6.155-.187-8.86-5.213-9.727-7.482.009.027-.371-1.34-.371-1.34l-.232.029c-13.385 2.014-15.623 5.882-17.238 9.164-1.05 2.128-3.173 4.748-3.173 4.748l.899.33c.404.16.89.277 1.504.348 2.103.246 3.978-1.392 3.978-1.392l1.549-1.325c1.704-1.35 2.607-1.576 3.082-1.562.302.01.455.068.596.32.548.914-.083 2.724-1.973 5.089-1.68 2.139-2.478 4.13-2.587 5.37-.105 1.208-.385 2.715-1.715 6.61-1.652 4.492-4.833 9.543-9.245 15.162 0 0 4.4-2.692 9.724-5.76 4.568-2.235 5.945-3.784 9.77-7.877 1.568-1.77 3.126-3.235 3.732-3.217 0 0 .293.312.284.615 1.22 4.235-4.314 9.822-4.55 10.156-1.568 1.769-2.54 3.859-3.191 5.353-.341.78-.552 2.103-.552 2.103l.789.024s.145-1.034.66-1.797c.66-.735 2.178-2.274 5.119-4.25-1.067.662-1.925 1.244-2.596 1.83.33-.897 1.46-2.606 1.46-2.606s.429-.592.74-.886c1.578-2.071 4.742-6.516 3.634-9.881-.276-.917-.57-1.193-1.174-1.247-2.374-.216-8.027 8.352-13.136 10.715-2.458 1.136-4.836 2.665-6.073 3.536 2.843-3.85 4.778-7.727 6.09-11.018 1.33-3.896 1.688-5.702 1.724-6.912.168-1.414.578-2.375 2.569-4.767 2.2-2.658 2.88-5.06 2.31-6.288-.283-.614-.88-.936-1.483-.954-.784-.024-1.748.368-3.16 1.337l-2.45 2.066c-.368.359-1.697.916-3 .876l-.605-.018c.32-.596 1.66-2.847 2.247-4.171 1.603-2.974 3.496-6.536 15.919-8.58l.123.35c.903 2.47 3.84 8.232 10.6 8.438 2.597.079 5.22-.667 8.123-1.97.19 2.498.6 8.832-2.461 14.86-1.275 2.002-2.137 4.262-7.337 6.635-.498.227.765-4.115.765-4.115l-1.057-.032c-1.155 2.856-1.537 3.672-2.595 5.074-.284.392-3.77 4.427-7.161 6.443-.747.448-1.402.874-2.016 1.286.757-.47 1.605-.972 2.63-1.57 3.295-1.892 5.475-4.125 6.899-6.1l.397-.544s.752.032 2.06-.195c5.217-2.264 6.212-4.228 8.029-7.165 2.4-4.752 2.847-11.634 2.34-14.662"/>
    </g>
</svg>
